Coordinates
version=1
nRows=41
nColumns=38
inDegrees=no

Units are S.I. units (second, meters, Newtons, ...)
If the header above contains a line with 'inDegrees', this indicates whether rotational values are in degrees (yes) or radians (no).

endheader
time	pelvis_tilt	pelvis_list	pelvis_rotation	pelvis_tx	pelvis_ty	pelvis_tz	hip_flexion_r	hip_adduction_r	hip_rotation_r	knee_angle_r	ankle_angle_r	subtalar_angle_r	mtp_angle_r	hip_flexion_l	hip_adduction_l	hip_rotation_l	knee_angle_l	ankle_angle_l	subtalar_angle_l	mtp_angle_l	lumbar_extension	lumbar_bending	lumbar_rotation	arm_flex_r	arm_add_r	arm_rot_r	elbow_flex_r	pro_sup_r	wrist_flex_r	wrist_dev_r	arm_flex_l	arm_add_l	arm_rot_l	elbow_flex_l	pro_sup_l	wrist_flex_l	wrist_dev_l
110	-2.57207	1.42942	1.27075	0.741848	1.04896	0.871591	-0.32309	0.0502576	0.070068	0	-0.317205	0	0	0.43055	0.00323181	-0.0136903	0	-0.547078	0	0	0.14762	0.0771839	0.264696	0.707722	-0.0504155	0.249992	0.513202	1.5708	0	0	-0.0267101	-0.183789	0.12743	0.46075	1.5708	0	0
110.01	-2.58764	1.42797	1.28888	0.744971	1.04007	0.872191	-0.325033	0.0458191	0.0722333	0	-0.320914	0	0	0.448351	0.00494927	-0.0426867	0.0331193	-0.538142	0	0	0.147988	0.0739826	0.266764	0.703579	-0.0470726	0.247956	0.515896	1.5708	0	0	-0.0294727	-0.185026	0.127164	0.459739	1.5708	0	0
110.02	-2.60902	1.42475	1.31294	0.748161	1.03119	0.872733	-0.318349	0.0409056	0.0627392	0.0231156	-0.32221	0	0	0.469912	0.00390237	-0.0769367	0.0977263	-0.520401	0	0	0.15072	0.0701487	0.269728	0.696523	-0.0450038	0.244369	0.521884	1.5708	0	0	-0.0316916	-0.186547	0.128583	0.458216	1.5708	0	0
110.03	-2.70971	1.41406	1.41329	0.752446	1.02315	0.872099	-0.188218	0.0180287	-0.116355	0.321778	-0.213944	0	0	0.492199	0.0170429	-0.101343	0.13763	-0.512558	0	0	0.164553	0.0577013	0.275512	0.68823	-0.0446936	0.24734	0.528307	1.5708	0	0	-0.0364788	-0.187549	0.131294	0.458147	1.5708	0	0
110.04	-2.64918	1.42067	1.36067	0.755033	1.0135	0.874317	-0.299338	0.0293069	0.0242613	0.0949929	-0.331082	0	0	0.482139	0.00807814	-0.106006	0.16015	-0.499626	0	0	0.153983	0.0616329	0.273344	0.681266	-0.0442889	0.249619	0.535475	1.5708	0	0	-0.0349925	-0.190531	0.139262	0.454804	1.5708	0	0
110.05	-2.66299	1.41923	1.37921	0.758501	1.00481	0.875375	-0.29013	0.0235514	0.00614704	0.131061	-0.343469	0	0	0.489815	0.0087995	-0.120329	0.197024	-0.484132	0	0	0.154685	0.0578589	0.273251	0.674199	-0.0447874	0.259392	0.541518	1.5708	0	0	-0.0357784	-0.192003	0.144299	0.452137	1.5708	0	0
110.06	-2.67779	1.41803	1.39846	0.762024	0.996143	0.876475	-0.277682	0.0161692	-0.0163123	0.175722	-0.349455	0	0	0.492176	0.0112303	-0.128736	0.222571	-0.468303	0	0	0.155433	0.0539565	0.272734	0.667448	-0.0453836	0.272105	0.546386	1.5708	0	0	-0.0376835	-0.194035	0.149881	0.45182	1.5708	0	0
110.07	-2.69403	1.41617	1.41899	0.76558	0.987554	0.8775	-0.261522	0.0070413	-0.042967	0.227226	-0.354354	0	0	0.493084	0.0147358	-0.136048	0.242651	-0.454072	0	0	0.157213	0.0500869	0.271614	0.6608	-0.04594	0.287786	0.549832	1.5708	0	0	-0.0409928	-0.196501	0.155578	0.453836	1.5708	0	0
110.08	-2.71322	1.41424	1.44067	0.768973	0.979144	0.878453	-0.240387	-0.00536486	-0.0732849	0.289371	-0.356764	0	0	0.491767	0.018497	-0.144408	0.257582	-0.440175	0	0	0.158875	0.0461877	0.2714	0.654216	-0.0462572	0.304644	0.552649	1.5708	0	0	-0.0452364	-0.198637	0.158508	0.458061	1.5708	0	0
110.09	-2.73972	1.41151	1.46816	0.772335	0.97083	0.879301	-0.214194	-0.0219754	-0.105675	0.360978	-0.35216	0	0	0.485177	0.0254296	-0.146801	0.258599	-0.42845	0	0	0.161588	0.0415886	0.272042	0.646078	-0.0464167	0.319648	0.556746	1.5708	0	0	-0.0505651	-0.200833	0.161049	0.463842	1.5708	0	0
110.1	-2.82766	1.38943	1.54841	0.775331	0.9638	0.877964	-0.101048	-0.0525006	-0.136866	0.583747	-0.307507	0	0	0.507287	0.0387114	-0.157106	0.275128	-0.410075	0	0	0.185945	0.0292286	0.281537	0.634509	-0.0465487	0.333813	0.563091	1.5708	0	0	-0.0596634	-0.204005	0.162196	0.473722	1.5708	0	0
110.11	-2.82949	1.37231	1.54884	0.777922	0.956091	0.877329	-0.0633679	-0.0620503	-0.132195	0.638225	-0.321741	0	0	0.520785	0.0378983	-0.159979	0.28842	-0.392276	0	0	0.204812	0.0292256	0.284481	0.621017	-0.0482933	0.347655	0.573074	1.5708	0	0	-0.0681117	-0.206984	0.162775	0.483575	1.5708	0	0
110.12	-2.84	1.36972	1.56041	0.780201	0.948989	0.878184	-0.0436797	-0.0726724	-0.130622	0.684512	-0.332876	0	0	0.516597	0.0410607	-0.157558	0.294694	-0.381038	0	0	0.203631	0.0251393	0.285601	0.610228	-0.0508907	0.355443	0.588312	1.5708	0	0	-0.0700322	-0.209572	0.163689	0.492287	1.5708	0	0
110.13	-2.8291	1.3503	1.54905	0.781688	0.9428	0.877175	0.00101641	-0.0765037	-0.120711	0.741115	-0.338563	0	0	0.535375	0.0383784	-0.143414	0.307895	-0.370921	0	0	0.221267	0.0266898	0.286803	0.595476	-0.0533047	0.357312	0.607668	1.5708	0	0	-0.0756348	-0.212681	0.161822	0.504151	1.5708	0	0
110.14	-2.82294	1.33666	1.53842	0.783636	0.936156	0.877625	0.0369718	-0.0811838	-0.108758	0.787739	-0.348235	0	0	0.542791	0.0359346	-0.133506	0.312291	-0.353966	0	0	0.231491	0.0342703	0.29326	0.575478	-0.0566859	0.347034	0.634061	1.5708	0	0	-0.0868384	-0.209915	0.118897	0.497573	1.5708	0	0
110.15	-2.83978	1.33371	1.5505	0.78544	0.928559	0.877942	0.0572228	-0.0930704	-0.105564	0.829221	-0.35527	0	0	0.534722	0.0371578	-0.135235	0.310047	-0.343894	0	0	0.234645	0.0250247	0.301226	0.55733	-0.0614856	0.345098	0.657892	1.5708	0	0	-0.0790792	-0.216047	0.167181	0.515127	1.5708	0	0
110.16	-2.84727	1.33497	1.5514	0.787412	0.920858	0.879258	0.0709934	-0.101455	-0.0989153	0.862468	-0.365255	0	0	0.522779	0.03383	-0.144404	0.310448	-0.33681	0	0	0.231811	0.024196	0.307898	0.542242	-0.0650129	0.346643	0.678033	1.5708	0	0	-0.080774	-0.216139	0.166308	0.518764	1.5708	0	0
110.17	-2.85332	1.33762	1.55114	0.789177	0.913139	0.880752	0.082945	-0.108734	-0.0935387	0.89386	-0.376913	0	0	0.509296	0.0307438	-0.149256	0.310408	-0.33117	0	0	0.227727	0.0233261	0.313251	0.529173	-0.0676898	0.350142	0.695235	1.5708	0	0	-0.0824075	-0.216355	0.164808	0.522079	1.5708	0	0
110.18	-2.85952	1.3427	1.55134	0.79115	0.905214	0.882439	0.0901431	-0.116489	-0.0891074	0.920272	-0.38803	0	0	0.489422	0.0288874	-0.156946	0.302036	-0.328339	0	0	0.221952	0.0228211	0.317206	0.517625	-0.0698978	0.354865	0.709434	1.5708	0	0	-0.0845744	-0.216	0.159907	0.524653	1.5708	0	0
110.19	-2.87038	1.35523	1.55623	0.794663	0.896152	0.88476	0.0822232	-0.131674	-0.0955039	0.926048	-0.418919	0	0	0.451281	0.0343421	-0.16139	0.274299	-0.325657	0	0	0.211395	0.0237367	0.319926	0.503489	-0.0749284	0.364553	0.726342	1.5708	0	0	-0.0894146	-0.212759	0.153467	0.524943	1.5708	0	0
110.2	-2.85882	1.3498	1.54074	0.794778	0.890351	0.885339	0.108517	-0.123823	-0.068999	0.969925	-0.371602	0	0	0.45848	0.0234346	-0.171771	0.29647	-0.312149	0	0	0.212915	0.024533	0.323433	0.488934	-0.0810154	0.369596	0.756258	1.5708	0	0	-0.0868707	-0.21463	0.153283	0.528563	1.5708	0	0
110.21	-2.85584	1.35582	1.53453	0.796663	0.882989	0.887076	0.11214	-0.125882	-0.0596078	0.984865	-0.367709	0	0	0.439129	0.0224815	-0.175497	0.291265	-0.308427	0	0	0.205656	0.0256777	0.324048	0.470566	-0.0866454	0.374266	0.786719	1.5708	0	0	-0.0867817	-0.214228	0.152986	0.528479	1.5708	0	0
110.22	-2.86919	1.37594	1.54216	0.799927	0.873771	0.89028	0.0920248	-0.136037	-0.0582609	0.982801	-0.367955	0	0	0.396561	0.0231889	-0.210287	0.276742	-0.308236	0	0	0.186228	0.0251143	0.328534	0.44703	-0.0931335	0.374201	0.818754	1.5708	0	0	-0.087026	-0.212006	0.154684	0.525071	1.5708	0	0
110.23	-2.86786	1.38562	1.53875	0.802296	0.866096	0.892216	0.0880278	-0.139047	-0.0519859	0.987824	-0.364018	0	0	0.36874	0.0239566	-0.221184	0.2628	-0.30653	0	0	0.176308	0.0259118	0.328196	0.427364	-0.0959598	0.373903	0.843183	1.5708	0	0	-0.0874909	-0.211578	0.156563	0.525168	1.5708	0	0
110.24	-2.85857	1.39532	1.52959	0.804659	0.859005	0.893768	0.0844229	-0.139914	-0.0460075	0.993349	-0.356863	0	0	0.342151	0.0241777	-0.226811	0.249342	-0.304325	0	0	0.1589	0.030434	0.343386	0.368521	-0.0408891	0.27298	0.914041	1.5708	0	0	-0.0704424	-0.209705	0.183226	0.513973	1.5708	0	0
110.25	-2.84814	1.39889	1.52092	0.807003	0.851987	0.895323	0.0866425	-0.138852	-0.0386799	0.995376	-0.350651	0	0	0.320991	0.025884	-0.222937	0.23083	-0.305654	0	0	0.161957	0.0293754	0.321048	0.388555	-0.0946539	0.356228	0.883524	1.5708	0	0	-0.0867225	-0.210298	0.162187	0.523779	1.5708	0	0
110.26	-2.83466	1.40317	1.51056	0.809597	0.845297	0.896463	0.0882307	-0.138729	-0.0348541	0.997992	-0.343392	0	0	0.298712	0.0274089	-0.219949	0.210183	-0.308211	0	0	0.157812	0.0316739	0.311861	0.374164	-0.0947634	0.359061	0.898776	1.5708	0	0	-0.0901717	-0.208796	0.157367	0.526256	1.5708	0	0
110.27	-2.81426	1.41101	1.49376	0.811837	0.838896	0.897691	0.0860759	-0.137017	-0.0318165	0.999922	-0.332149	0	0	0.279442	0.0242393	-0.22494	0.206155	-0.308301	0	0	0.142168	0.0371236	0.321713	0.322664	-0.0419181	0.27783	0.960752	1.5708	0	0	-0.0734514	-0.207649	0.184629	0.51565	1.5708	0	0
110.28	-2.79724	1.40952	1.48186	0.814332	0.832577	0.898491	0.0943889	-0.135156	-0.0295545	1.00096	-0.324949	0	0	0.265062	0.0245566	-0.219339	0.187652	-0.31211	0	0	0.151057	0.036789	0.294049	0.344391	-0.0908545	0.351992	0.929057	1.5708	0	0	-0.0922177	-0.209428	0.164714	0.528876	1.5708	0	0
110.29	-2.76502	1.41559	1.45462	0.816576	0.826679	0.899358	0.0942779	-0.131651	-0.0278866	1.00104	-0.315232	0	0	0.245384	0.0219334	-0.21657	0.176903	-0.310706	0	0	0.1375	0.0445115	0.299889	0.297215	-0.0375058	0.283798	0.986069	1.5708	0	0	-0.0777742	-0.208378	0.190608	0.520956	1.5708	0	0
110.3	-2.72764	1.41755	1.42232	0.817826	0.820821	0.900453	0.0987833	-0.123492	-0.0227188	0.999249	-0.304679	0	0	0.243745	0.00933485	-0.238995	0.202233	-0.300024	0	0	0.134638	0.0482703	0.289522	0.287524	-0.0338845	0.286617	0.994552	1.5708	0	0	-0.0772938	-0.210652	0.196822	0.522582	1.5708	0	0
110.31	-2.72175	1.41436	1.42366	0.821244	0.815434	0.900571	0.110125	-0.1273	-0.0266895	1.00014	-0.29578	0	0	0.220883	0.0199129	-0.217713	0.1543	-0.312974	0	0	0.14629	0.0481188	0.25799	0.317039	-0.0885216	0.363994	0.958476	1.5708	0	0	-0.0982668	-0.210717	0.176055	0.538622	1.5708	0	0
110.32	-2.6928	1.41887	1.40189	0.82376	0.810375	0.901033	0.113094	-0.126258	-0.029031	1.00041	-0.283595	0	0	0.207194	0.0173949	-0.227148	0.152345	-0.311743	0	0	0.13457	0.0560694	0.263517	0.269756	-0.0357341	0.299105	1.01395	1.5708	0	0	-0.0817684	-0.210434	0.209004	0.531105	1.5708	0	0
110.33	-2.65774	1.42801	1.37088	0.824802	0.804605	0.903095	0.108864	-0.11981	-0.0239234	0.991695	-0.274106	0	0	0.177279	0.0172102	-0.20149	0.125099	-0.304421	0	0	0.12948	0.054031	0.238396	0.30429	-0.0859107	0.366871	0.97296	1.5708	0	0	-0.0942686	-0.215282	0.198133	0.544139	1.5708	0	0
110.34	-2.40744	1.39293	1.12203	0.823335	0.79905	0.89817	0.14522	-0.0513661	0.000115111	1.00093	-0.250294	0	0	0.151166	-0.0247457	-0.11313	0.0133442	-0.297299	0	0	0.155043	0.107368	0.221268	0.295513	-0.0896775	0.379999	0.992686	1.5708	0	0	-0.120654	-0.219959	0.187367	0.586688	1.5708	0	0
110.35	-2.39565	1.38705	1.11709	0.825438	0.79492	0.898585	0.162587	-0.0471518	0.00274467	0.99979	-0.244083	0	0	0.162243	-0.0310603	-0.139349	0.0474248	-0.302366	0	0	0.158597	0.115872	0.208674	0.290063	-0.0886712	0.381143	0.998954	1.5708	0	0	-0.131324	-0.215787	0.148031	0.581482	1.5708	0	0
110.36	-2.19855	1.51014	0.863675	0.815034	0.783131	0.91777	0.0328178	-0.0679926	0.0809952	0.941131	-0.252283	0	0	-0.0302817	0.00101198	0.0332673	0	-0.34123	0	0	0.0122582	0.0456265	0.291515	0.274846	-0.00740395	0.31231	1.00496	1.5708	0	0	-0.0602761	-0.235622	0.227808	0.54927	1.5708	0	0
110.37	-1.97789	1.52054	0.641371	0.815751	0.778536	0.920063	0.0269359	-0.0643856	0.0908239	0.932822	-0.251592	0	0	-0.0596082	-0.000754667	0.0335876	0	-0.357652	0	0	-0.00335917	0.0427676	0.289345	0.296075	-0.052509	0.326604	0.980948	1.5708	0	0	-0.056516	-0.240865	0.242928	0.555881	1.5708	0	0
110.38	-1.66065	1.52643	0.324369	0.817872	0.774968	0.92097	0.0248116	-0.0644364	0.0937663	0.932693	-0.240763	0	0	-0.0817647	-0.0016672	-0.00898409	0	-0.377272	0	0	-0.0302693	0.050494	0.30128	0.287768	0.0205368	0.067236	0.936509	1.5708	0	0	-0.039844	-0.241355	0.280685	0.559476	1.5708	0	0
110.39	-1.63977	1.52338	0.30227	0.818729	0.770469	0.921169	0.0426819	-0.0590248	0.100235	0.938994	-0.236129	0	0	-0.0900084	-0.00523445	-0.00681768	0	-0.372427	0	0	-0.0301513	0.0538362	0.298166	0.288639	0.0209095	0.0729484	0.935161	1.5708	0	0	-0.0433221	-0.24332	0.277827	0.570252	1.5708	0	0
110.4	-1.78654	1.51984	0.46061	0.822041	0.767721	0.920104	0.0699195	-0.0622208	0.0915795	0.948291	-0.233457	0	0	-0.0812038	-0.00470764	-0.0367021	0	-0.370712	0	0	-0.0217519	0.0573904	0.283484	0.290612	0.0178572	0.0782037	0.934289	1.5708	0	0	-0.0447576	-0.241189	0.275355	0.577072	1.5708	0	0
